<svg width="525" height="287" viewBox="0 0 525 287" fill="none" xmlns="http://www.w3.org/2000/svg">
<path d="M99.7559 260.049C105.908 260.049 114.258 259.219 124.805 257.559V285.244C122.852 285.342 120.752 285.439 118.506 285.537C116.26 285.635 114.014 285.732 111.768 285.83C107.275 286.025 101.318 286.123 93.8965 286.123C86.5723 286.123 78.6133 285.342 70.0195 283.779C61.5234 282.314 54.3457 279.824 48.4863 276.309C36.7676 269.18 30.9082 257.705 30.9082 241.885C30.9082 227.529 31.6895 216.494 33.252 208.779C35.3027 199.209 36.3281 189.443 36.3281 179.482V176.846C36.3281 167.861 31.9824 161.66 23.291 158.242C20.459 157.168 17.334 156.631 13.916 156.631H0V130.703L13.916 130.41C20.6543 130.41 26.123 128.408 30.3223 124.404C34.3262 120.596 36.3281 115.859 36.3281 110.195V107.559C36.3281 97.5977 35.791 90.0781 34.7168 85C33.6426 79.9219 32.9102 75.8691 32.5195 72.8418C32.1289 69.7168 31.7871 66.6895 31.4941 63.7598C31.1035 58.4863 30.9082 53.2617 30.9082 48.0859C30.9082 16.543 53.9551 0.771484 100.049 0.771484C103.76 0.771484 107.227 0.820312 110.449 0.917969L118.799 1.35742C120.947 1.45508 122.949 1.55273 124.805 1.65039V29.4824C113.574 27.7246 105.029 26.8457 99.1699 26.8457C93.3105 26.8457 88.0371 27.2852 83.3496 28.1641C78.7598 28.9453 74.6582 30.2148 71.0449 31.9727C62.9395 35.7812 58.8867 40.8594 58.8867 47.207V53.3594C58.8867 64.2969 59.2773 71.8652 60.0586 76.0645C60.9375 80.2637 61.5234 83.5352 61.8164 85.8789C62.207 88.125 62.5488 90.3711 62.8418 92.6172C63.2324 96.5234 63.4277 101.504 63.4277 107.559C63.4277 128.945 55.7129 140.566 40.2832 142.422V144.473C55.7129 146.719 63.4277 158.389 63.4277 179.482C63.4277 188.564 62.8418 196.279 61.6699 202.627C60.498 208.975 59.8145 213.76 59.6191 216.982C59.4238 220.205 59.2285 223.477 59.0332 226.797C58.9355 230.117 58.8867 233.242 58.8867 236.172V242.764C58.8867 254.287 72.5098 260.049 99.7559 260.049ZM274.951 85.5859H355.811V235H346.582C321.191 235 302.93 230.557 291.797 221.67C280.566 212.686 274.951 197.842 274.951 177.139V85.5859ZM169.189 162.051C169.189 151.309 170.605 141.348 173.438 132.168C176.27 122.891 180.664 114.785 186.621 107.852C199.512 93.0078 217.969 85.5859 241.992 85.5859H253.271V235H245.654C221.045 235 202.002 228.262 188.525 214.785C175.635 201.895 169.189 184.316 169.189 162.051ZM399.902 257.559C410.449 259.219 418.799 260.049 424.951 260.049C431.104 260.049 436.475 259.756 441.064 259.17C445.752 258.682 449.951 257.754 453.662 256.387C461.768 253.457 465.82 248.916 465.82 242.764V236.172C465.82 224.844 465.381 216.738 464.502 211.855L462.744 201.162C461.768 195.596 461.279 188.369 461.279 179.482C461.279 158.291 468.994 146.621 484.424 144.473V142.422C468.994 140.566 461.279 128.945 461.279 107.559C461.279 98.7695 461.621 92.373 462.305 88.3691L464.062 78.2617C465.234 71.2305 465.82 64.6875 465.82 58.6328V47.207C465.82 40.8594 461.768 35.7812 453.662 31.9727C446.533 28.5547 438.574 26.8457 429.785 26.8457C421.094 26.8457 411.133 27.7246 399.902 29.4824V1.65039C401.758 1.55273 403.76 1.45508 405.908 1.35742C408.154 1.25977 410.4 1.16211 412.646 1.06445C416.943 0.869141 420.947 0.771484 424.658 0.771484C470.752 0.771484 493.799 16.543 493.799 48.0859C493.799 60.7813 493.018 70.9375 491.455 78.5547C489.404 87.9297 488.379 97.5977 488.379 107.559V110.195C488.379 119.18 492.725 125.381 501.416 128.799C504.248 129.873 507.373 130.41 510.791 130.41L524.707 130.703V156.631H510.791C504.053 156.631 498.584 158.633 494.385 162.637C490.381 166.445 488.379 171.182 488.379 176.846V179.482C488.379 189.443 488.916 197.012 489.99 202.188C491.064 207.266 491.797 211.465 492.188 214.785C492.578 218.105 492.92 221.426 493.213 224.746C493.604 230.703 493.799 237.1 493.799 243.936C493.799 250.771 492.285 256.973 489.258 262.539C486.328 268.203 481.982 272.793 476.221 276.309C465.381 282.852 448.389 286.123 425.244 286.123C421.533 286.123 418.018 286.074 414.697 285.977L406.201 285.537C403.955 285.439 401.855 285.342 399.902 285.244V257.559Z" fill="#c4c3c3"/>
</svg>
